<svg id="Layer_1" data-name="Layer 1" xmlns="http://www.w3.org/2000/svg" xmlns:xlink="http://www.w3.org/1999/xlink" viewBox="0 0 180.22 180.22"><defs><style>.cls-1{fill:url(#linear-gradient);}.cls-2{fill:url(#linear-gradient-2);}.cls-3{fill:none;stroke-miterlimit:10;stroke-width:10px;stroke:url(#linear-gradient-3);}</style><linearGradient id="linear-gradient" x1="238.5" y1="240" x2="311.95" y2="240" gradientUnits="userSpaceOnUse"><stop offset="0" stop-color="#02ebfe"/><stop offset="0.52" stop-color="#02cbff"/><stop offset="1" stop-color="#0097ff"/></linearGradient><linearGradient id="linear-gradient-2" x1="-3.52" x2="-76.97" gradientTransform="matrix(-1, 0, 0, 1, 308.42, 0)" xlink:href="#linear-gradient"/><linearGradient id="linear-gradient-3" y1="90.11" x2="180.22" y2="90.11" gradientUnits="userSpaceOnUse"><stop offset="0" stop-color="#02ebfe"/><stop offset="0.52" stop-color="#01ccff"/><stop offset="1" stop-color="#0098fd"/></linearGradient></defs><path class="cls-1" d="M262.11,161.32,260,162.47,257,164.31l-3.27,2.19a57.14,57.14,0,0,0-5.2,4.53,40.32,40.32,0,0,0-4.86,6.06,38.59,38.59,0,0,0-3.69,8.63,39.26,39.26,0,0,0-1.45,9.5,50.28,50.28,0,0,0,.47,8.53,73.6,73.6,0,0,0,3.61,14.06A132.83,132.83,0,0,0,250,233.89c2.27,4.11,5.91,10.42,9.69,16.06s5.75,8.58,11.61,17,9.92,13.94,10.31,14.72a150.12,150.12,0,0,1,11.83,20.14c5.06,10.81,7.43,16.9,7.43,16.9L296,304.53l-7-18.89-14.61-36.11,4.61,2.72,4.5,2.89,6.55,4.22,3.5,2.17,5.56,3.17,3.61,1.77,3.72,1.62,2.89.94,2.67.56v-27.5l-2.89-.23-3.56-.44-3.44-.56-3.95-.86-5.44-1.41-5.61-1.67L281.28,235,274,232.59l-6.73-2.12-1.5-5.11-1.38-5-1-4.11-.95-3.94-.72-3.61-.56-3-.5-3.11-.44-3.39-.39-3.23-.28-3.38-.16-3-.06-2.89-.06-2.61.12-2.72.16-3.5.22-3.11.39-2.61.39-3.06.5-2.55.56-2.89Z" transform="translate(-221.84 -144.27)"/><path class="cls-2" d="M361.78,161.32l2.08,1.15,3.06,1.84,3.28,2.19a56,56,0,0,1,5.19,4.53,39.1,39.1,0,0,1,4.86,6.06,38.64,38.64,0,0,1,3.7,8.63,39.76,39.76,0,0,1,1.44,9.5,49.27,49.27,0,0,1-.47,8.53,73.6,73.6,0,0,1-3.61,14.06A134.37,134.37,0,0,1,374,233.89c-2.28,4.11-5.92,10.42-9.7,16.06s-5.75,8.58-11.61,17-9.92,13.94-10.3,14.72a150.82,150.82,0,0,0-11.84,20.14c-5.05,10.81-7.43,16.9-7.43,16.9L328,304.53l7-18.89,14.61-36.11L345,252.25l-4.5,2.89-6.56,4.22-3.5,2.17-5.55,3.17-3.62,1.77-3.72,1.62-2.89.94-2.66.56v-27.5l2.89-.23,3.55-.44,3.45-.56,3.94-.86,5.44-1.41,5.62-1.67,5.77-1.89,7.34-2.44,6.72-2.12,1.5-5.11,1.39-5,1-4.11.94-3.94.72-3.61.56-3,.5-3.11.44-3.39.39-3.23.28-3.38.17-3,.05-2.89.06-2.61-.11-2.72-.17-3.5-.22-3.11-.39-2.61-.39-3.06-.5-2.55-.55-2.89Z" transform="translate(-221.84 -144.27)"/><circle class="cls-3" cx="90.11" cy="90.11" r="85.11"/></svg>