<svg id="Layer_1" data-name="Layer 1" xmlns="http://www.w3.org/2000/svg" xmlns:xlink="http://www.w3.org/1999/xlink" viewBox="0 0 837.37 200"><defs><style>.cls-1{fill:url(#linear-gradient);}.cls-2{fill:url(#linear-gradient-2);}.cls-3{fill:none;stroke-miterlimit:10;stroke-width:10px;stroke:url(#linear-gradient-3);}.cls-4{font-size:115px;fill:#4d4d4d;font-family:HoboStd, Hobo Std;letter-spacing:0.03em;}</style><linearGradient id="linear-gradient" x1="59.59" y1="107.46" x2="125.16" y2="107.46" gradientUnits="userSpaceOnUse"><stop offset="0" stop-color="#02ebfe"/><stop offset="0.52" stop-color="#02cbff"/><stop offset="1" stop-color="#0097ff"/></linearGradient><linearGradient id="linear-gradient-2" x1="343.27" y1="107.46" x2="277.69" y2="107.46" gradientTransform="matrix(-1, 0, 0, 1, 468.42, 0)" xlink:href="#linear-gradient"/><linearGradient id="linear-gradient-3" y1="95.73" x2="161.97" y2="95.73" gradientUnits="userSpaceOnUse"><stop offset="0" stop-color="#02ebfe"/><stop offset="0.52" stop-color="#01ccff"/><stop offset="1" stop-color="#0098fd"/></linearGradient></defs><path class="cls-1" d="M80.67,37.22l-1.86,1-2.73,1.64-2.93,2a50.63,50.63,0,0,0-4.63,4,35.26,35.26,0,0,0-4.34,5.4A34.18,34.18,0,0,0,60.88,59a35,35,0,0,0-1.29,8.48A44.3,44.3,0,0,0,60,75.1a65,65,0,0,0,3.22,12.55A118.43,118.43,0,0,0,69.81,102c2,3.67,5.28,9.3,8.65,14.33S83.6,124,88.83,131.5s8.85,12.44,9.2,13.14a133.63,133.63,0,0,1,10.56,18c4.52,9.65,6.63,15.09,6.63,15.09l-4.35-12.64-6.25-16.86L91.58,116l4.12,2.43,4,2.58,5.86,3.77,3.12,1.93,5,2.83,3.23,1.59,3.32,1.44,2.58.84,2.38.5V109.33l-2.58-.2-3.17-.4-3.08-.5-3.52-.77L108,106.2l-5-1.49L97.78,103l-6.55-2.19-6-1.88L83.89,94.4l-1.24-4.47-.89-3.67-.84-3.52-.65-3.22-.49-2.68-.45-2.78-.4-3-.34-2.88-.25-3-.15-2.63,0-2.58,0-2.33.1-2.43L78.34,52l.2-2.78.34-2.33.35-2.73.45-2.28.49-2.58Z" transform="translate(-44.17 -6.72)"/><path class="cls-2" d="M169.65,37.22l1.86,1,2.73,1.64,2.92,2a50.43,50.43,0,0,1,4.64,4,35.88,35.88,0,0,1,4.34,5.4,34.64,34.64,0,0,1,3.3,7.72,35.5,35.5,0,0,1,1.29,8.48,44.3,44.3,0,0,1-.42,7.61,65.77,65.77,0,0,1-3.22,12.55A120,120,0,0,1,180.51,102c-2,3.67-5.28,9.3-8.65,14.33s-5.14,7.67-10.37,15.16-8.85,12.44-9.2,13.14a134.33,134.33,0,0,0-10.57,18c-4.51,9.65-6.63,15.09-6.63,15.09l4.35-12.64,6.25-16.86L158.74,116l-4.12,2.43-4,2.58-5.85,3.77-3.12,1.93-5,2.83-3.23,1.59-3.32,1.44-2.58.84-2.38.5V109.33l2.58-.2,3.17-.4,3.08-.5,3.52-.77,4.86-1.26,5-1.49,5.16-1.68,6.54-2.19,6-1.88,1.33-4.56,1.24-4.47.9-3.67.84-3.52.65-3.22.49-2.68.45-2.78.39-3,.35-2.88.25-3,.15-2.63.05-2.58,0-2.33-.1-2.43L172,52l-.2-2.78-.35-2.33-.34-2.73-.45-2.28-.5-2.58Z" transform="translate(-44.17 -6.72)"/><circle class="cls-3" cx="80.99" cy="95.73" r="75.99"/><text class="cls-4" transform="translate(217.58 149.05)">VanHung</text></svg>